# AST/ASF file generated using VICON BodyLanguage
# -----------------------------------------------
:version 1.10
:name VICON
:units
  mass 1.0
  length 0.45
  angle deg
:documentation
   .ast/.asf automatically generated from VICON data using
   VICON BodyBuilder and BodyLanguage model FoxedUp or BRILLIANT.MOD
:root
   order TX TY TZ RX RY RZ
   axis XYZ
   position 0 0 0  
   orientation 0 0 0 
:bonedata
  begin
     id 1 
     name lhipjoint
     direction 0.707368 -0.647095 0.284426 
     length 2.60678 
     axis 0 0 0  XYZ
  end
  begin
     id 2 
     name lfemur
     direction 0.34202 -0.939693 0  
     length 6.63812  
     axis 0 0 20  XYZ
    dof rx ry rz
    limits (-160.0 20.0)
           (-70.0 70.0)
           (-60.0 70.0)
  end
  begin
     id 3 
     name ltibia
     direction 0.34202 -0.939693 0   
     length 7.51178   
     axis 0 0 20   XYZ
    dof rx
    limits (-10.0 170.0)
  end
  begin
     id 4 
     name lfoot
     direction 0.121251 -0.333133 0.935051   
     length 1.83716   
     axis -90 7.62852e-016 20   XYZ
    dof rx rz
    limits (-45.0 90.0)
           (-70.0 20.0)
  end
  begin
     id 5 
     name ltoes
     direction 1.53611e-011 -4.21962e-011 1   
     length 0.916133   
     axis -90 7.62852e-016 20   XYZ
    dof rx
    limits (-90.0 20.0)
  end
  begin
     id 6 
     name rhipjoint
     direction -0.692419 -0.660507 0.290321   
     length 2.55385  
     axis 0 0 0  XYZ 
  end
  begin
     id 7 
     name rfemur
     direction -0.34202 -0.939693 0   
     length 7.29079   
     axis 0 0 -20   XYZ
    dof rx ry rz
    limits (-160.0 20.0)
           (-70.0 70.0)
           (-70.0 60.0)
  end
  begin
     id 8 
     name rtibia
     direction -0.34202 -0.939693 0   
     length 7.47143   
     axis 0 0 -20   XYZ
    dof rx
    limits (-10.0 170.0)
 end
 begin
     id 9 
     name rfoot
     direction -0.119907 -0.329441 0.936532   
     length 1.79439  
     axis -90 -7.62852e-016 -20   XYZ
    dof rx rz
    limits (-45.0 90.0)
           (-20.0 70.0)
  end
  begin
     id 10 
     name rtoes
     direction -1.53571e-011 -4.21961e-011 1   
     length 0.896039   
     axis -90 -7.62852e-016 -20   XYZ
    dof rx
    limits (-90.0 20.0)
  end
  begin
     id 11 
     name lowerback
     direction 0.0367721 0.992912 -0.113016   
     length 1.73542   
     axis 0 0 0   XYZ
    dof rx ry rz
    limits (-20.0 45.0)
           (-30.0 30.0)
           (-30.0 30.0)
  end
  begin
     id 12 
     name upperback
     direction -0.000314626 0.990678 0.136227   
     length 1.7514   
     axis 0 0 0   XYZ
    dof rx ry rz
    limits (-20.0 45.0)
           (-30.0 30.0)
           (-30.0 30.0)
  end
  begin
     id 13 
     name thorax
     direction -0.0226159 0.981151 0.191917   
     length 1.71471   
     axis 0 0 0   XYZ
    dof rx ry rz
    limits (-20.0 45.0)
           (-30.0 30.0)
           (-30.0 30.0)
  end
  begin
     id 14 
     name lowerneck
     direction 0.0219333 0.998071 0.0580739   
     length 1.65882   
     axis 0 0 0   XYZ
    dof rx ry rz
    limits (-20.0 45.0)
           (-30.0 30.0)
           (-30.0 30.0)
  end
  begin
     id 15 
     name upperneck
     direction 0.0384529 0.980058 -0.194957   
     length 1.6612   
     axis 0 0 0   XYZ
    dof rx ry rz
    limits (-20.0 45.0)
           (-30.0 30.0)
           (-30.0 30.0)
  end
  begin
     id 16
     name head
     direction 0.00592123 0.997421 -0.0715234  
     length 1.68077  
     axis 0 0 0   XYZ
    dof rx ry rz
    limits (-20.0 45.0)
           (-30.0 30.0)
           (-30.0 30.0)
  end
  begin
     id 17 
     name lclavicle
     direction 0.904803 0.417826 0.0821728  
     length 3.42227  
     axis 0 0 0   XYZ
    dof ry rz
    limits (-20.0 10.0)
           (0.0 20.0)
  end
  begin
     id 18 
     name lhumerus
     direction 1 -4.48965e-011 -2.68786e-027   
     length 5.11878   
     axis -180 -30 -90   XYZ
    dof rx ry rz
    limits (-60.0 90.0)
           (-90.0 90.0)
           (-90.0 90.0)
  end
  begin
     id 19
     name lradius
     direction 1 -4.48965e-011 2.61168e-028   
     length 3.59971   
     axis -180 -30 -90   XYZ
    dof rx
    limits (-10.0 170.0)
  end
  begin
     id 20
     name lwrist
     direction 1 -4.48965e-011 1.58672e-027   
     length 1.79985   
     axis -1.65735e-015 90 90   XYZ
    dof ry
    limits (-180.0 0.0)
 end
  begin
     id 21 
     name lhand
     direction 1 -4.48942e-011 3.17344e-027   
     length 0.62877   
     axis -2.02492e-015 90 90   XYZ
    dof rx rz
    limits (-90.0 90.0)
           (-45.0 45.0)
  end
  begin
     id 22 
     name lfingers
     direction 1 -4.49011e-011 6.34687e-027   
     length 0.506931   
     axis -4.04985e-015 90 90   XYZ
    dof rx
    limits (0.0 90.0)
  end
  begin
     id 23
     name lthumb
     direction 0.707107 -6.34982e-011 0.707107   
     length 0.727854   
     axis -90 45 2.85299e-015   XYZ
    dof rx rz
    limits (-45.0 45.0)
           (-45.0 45.0)
  end
  begin
     id 24 
     name rclavicle
     direction -0.945647 0.32488 0.0143075   
     length 3.52737  
     axis 0 0 0   XYZ 
    dof ry rz
    limits (-10.0 20.0)
           (-20.0 0.0)
  end
  begin
     id 25 
     name rhumerus
     direction -1 -4.48962e-011 1.92182e-027  
     length 5.4902   
     axis -180 30 90   XYZ
    dof rx ry rz
    limits (-90.0 60.0)
           (-90.0 90.0)
           (-90.0 90.0)
  end
  begin
     id 26 
     name rradius
     direction -1 -4.48967e-011 -5.97193e-028   
     length 3.20659   
     axis -180 30 90   XYZ
    dof rx
    limits (-10.0 170.0)
  end
  begin
     id 27 
     name rwrist
     direction -1 -4.48964e-011 1.58672e-027   
     length 1.6033   
     axis -1.65735e-015 -90 -90   XYZ
    dof ry
    limits (-180.0 0.0)
  end
  begin
     id 28
     name rhand
     direction -1 -4.49006e-011 3.17344e-027   
     length 0.691885   
     axis -2.02492e-015 -90 -90   XYZ
    dof rx rz
    limits (-90.0 90.0)
           (-45.0 45.0)
  end
  begin
     id 29
     name rfingers
     direction -1 -4.48908e-011 6.34687e-027   
     length 0.557815   
     axis -4.04985e-015 -90 -90   XYZ
    dof rx
    limits (0.0 90.0)
  end
  begin
     id 30
     name rthumb
     direction -0.707107 -6.34999e-011 0.707107   
     length 0.800915   
     axis -90 -45 -2.85299e-015   XYZ
    dof rx rz
    limits (-45.0 45.0)
           (-45.0 45.0)
  end
:hierarchy
  begin
    root lhipjoint rhipjoint lowerback
    lhipjoint lfemur
    lfemur ltibia
    ltibia lfoot
    lfoot ltoes
    rhipjoint rfemur
    rfemur rtibia
    rtibia rfoot
    rfoot rtoes
    lowerback upperback
    upperback thorax
    thorax lowerneck lclavicle rclavicle
    lowerneck upperneck
    upperneck head
    lclavicle lhumerus
    lhumerus lradius
    lradius lwrist
    lwrist lhand lthumb
    lhand lfingers
    rclavicle rhumerus
    rhumerus rradius
    rradius rwrist
    rwrist rhand rthumb
    rhand rfingers
  end

#!OML:ASF I:\Actors\actors\Patient Classification 1\Patient 1\Session 1\Subject1.ASF
:FULLY-SPECIFIED
:DEGREES
66
root -0.534875 17.4967 8.22997 9.32462 -1.73382 -8.35951
lowerback 0.935316 0.847057 5.69529
upperback -9.25428 1.66218 1.76382
thorax -10.2819 0.421553 -1.45212
lowerneck -8.51381 -5.87108 -4.40373
upperneck 20.4549 -9.01374 7.25748
head 8.26887 -3.965 2.2498
rclavicle -3.52843e-015 3.81667e-014
rhumerus -44.5732 -21.0313 -72.9543
rradius 25.4564
rwrist 40.7797
rhand 7.37453 -30.1867
rfingers 7.12502
rthumb 32.6321 -57.2638
lclavicle -3.52843e-015 3.81667e-014
lhumerus -43.9408 12.5279 79.9576
lradius 24.8757
lwrist -21.7007
lhand -15.7632 -8.8786
lfingers 7.12502
lthumb 10.4286 20.8428
rfemur -2.48979 26.2644 25.1803
rtibia 0.752599
rfoot -10.9267 -26.8297
rtoes 1.9285
lfemur 6.67748 -45.1836 -14.0207
ltibia -4.6471
lfoot -26.002 54.6166
ltoes 15.62
67
root -0.535729 17.4964 8.23257 9.3203 -1.70358 -8.38008
lowerback 0.865747 0.856521 5.73044
upperback -9.23275 1.67009 1.75781
thorax -10.2144 0.42433 -1.47764
lowerneck -8.53377 -5.861 -4.39807
upperneck 20.418 -8.99246 7.239
head 8.25759 -3.95634 2.24449
rclavicle 1.09332e-015 1.11319e-014
rhumerus -44.4938 -20.8832 -73.1365
rradius 25.5222
rwrist 40.5604
rhand 7.30185 -30.3569
rfingers 7.12502
rthumb 32.563 -57.4483
lclavicle 1.09332e-015 1.11319e-014
lhumerus -43.8301 12.5434 79.9596
lradius 24.8387
lwrist -21.8175
lhand -16.0212 -8.85435
lfingers 7.12502
lthumb 10.1798 20.8794
rfemur -2.45978 26.2896 25.2238
rtibia 0.743417
rfoot -10.9545 -26.8815
rtoes 1.89282
lfemur 6.69372 -45.2031 -13.9987
ltibia -4.65732
lfoot -26.0305 54.5962
ltoes 15.6959
68
root -0.537645 17.4951 8.2357 9.30969 -1.65869 -8.4067
lowerback 0.802869 0.86061 5.76298
upperback -9.21857 1.67126 1.7492
thorax -10.1598 0.423476 -1.50395
lowerneck -8.60658 -5.8438 -4.28856
upperneck 20.5216 -8.97172 7.14171
head 8.29458 -3.94308 2.19424
rclavicle -9.39258e-015 -1.07344e-014
rhumerus -44.4534 -20.718 -73.3323
rradius 25.6105
rwrist 40.3456
rhand 7.22365 -30.5473
rfingers 7.12502
rthumb 32.4886 -57.654
lclavicle -9.39258e-015 -1.07344e-014
lhumerus -43.7665 12.4474 79.9919
lradius 24.8256
lwrist -21.7598
lhand -16.3016 -8.9401
lfingers 7.12502
lthumb 9.90916 20.8067
rfemur -2.39438 26.3915 25.2919
rtibia 0.711666
rfoot -10.9854 -27.0098
rtoes 2.07501
lfemur 6.69724 -45.1298 -13.9401
ltibia -4.68929
lfoot -25.8448 54.5302
ltoes 15.5693
69
root -0.539665 17.4934 8.23834 9.31818 -1.61436 -8.40279
lowerback 0.739017 0.858744 5.75493
upperback -9.2154 1.66229 1.74045
thorax -10.1182 0.420562 -1.50692
lowerneck -8.57856 -5.84191 -4.21617
upperneck 20.4654 -8.95685 7.0502
head 8.26181 -3.94102 2.15448
rclavicle -2.06239e-014 2.0276e-014
rhumerus -44.4254 -20.5997 -73.4661
rradius 25.6918
rwrist 40.2162
rhand 7.20557 -30.6546
rfingers 7.12502
rthumb 32.4713 -57.7649
lclavicle -2.06239e-014 2.0276e-014
lhumerus -43.7342 12.3423 80.0359
lradius 24.8093
lwrist -21.57
lhand -16.4958 -9.06329
lfingers 7.12502
lthumb 9.72183 20.6923
rfemur -2.36128 26.5128 25.3107
rtibia 0.687224
rfoot -11.0582 -27.1486
rtoes 2.35176
lfemur 6.66017 -45.0537 -13.8941
ltibia -4.707
lfoot -25.6439 54.4739
ltoes 15.3372
70
root -0.541295 17.4927 8.23898 9.34276 -1.58664 -8.39852
lowerback 0.714199 0.861942 5.74504
upperback -9.22827 1.66471 1.73964
thorax -10.1178 0.422414 -1.50206
lowerneck -8.59716 -5.81277 -4.25161
upperneck 20.5167 -8.91839 7.07249
head 8.28265 -3.92173 2.1713
rclavicle -3.3197e-014 1.66979e-014
rhumerus -44.4126 -20.5074 -73.5487
rradius 25.7566
rwrist 40.1215
rhand 7.17081 -30.7145
rfingers 7.12502
rthumb 32.4383 -57.8315
lclavicle -3.3197e-014 1.66979e-014
lhumerus -43.6963 12.4649 79.9673
lradius 24.751
lwrist -21.651
lhand -16.4741 -8.94675
lfingers 7.12502
lthumb 9.74277 20.8079
rfemur -2.39398 26.5987 25.305
rtibia 0.711499
rfoot -11.1698 -27.2431
rtoes 2.55601
lfemur 6.59527 -45.0446 -13.8393
ltibia -4.70274
lfoot -25.6521 54.4564
ltoes 15.319
71
root -0.542116 17.4931 8.23978 9.32118 -1.57538 -8.40057
lowerback 0.745794 0.872901 5.75881
upperback -9.23135 1.6832 1.73992
thorax -10.1389 0.429738 -1.51164
lowerneck -8.61474 -5.78294 -4.31608
upperneck 20.5846 -8.87867 7.10969
head 8.31086 -3.90232 2.19804
rclavicle -2.59414e-014 5.56597e-015
rhumerus -44.4103 -20.4265 -73.6062
rradius 25.7982
rwrist 39.9632
rhand 7.0932 -30.7531
rfingers 7.12502
rthumb 32.3644 -57.8853
lclavicle -2.59414e-014 5.56597e-015
lhumerus -43.6592 12.6954 79.8349
lradius 24.6837
lwrist -21.9794
lhand -16.3343 -8.78178
lfingers 7.12502
lthumb 9.8776 20.9665
rfemur -2.36896 26.6124 25.3295
rtibia 0.72841
rfoot -11.1898 -27.2868
rtoes 2.43925
lfemur 6.62298 -45.0471 -13.8539
ltibia -4.69697
lfoot -25.6281 54.4496
ltoes 15.3693
72
root -0.542162 17.4931 8.24174 9.29407 -1.56267 -8.40718
lowerback 0.757133 0.885908 5.78733
upperback -9.22276 1.70295 1.73805
thorax -10.1343 0.437203 -1.53149
lowerneck -8.62379 -5.77956 -4.3361
upperneck 20.6213 -8.86902 7.09168
head 8.32427 -3.89987 2.19611
rclavicle 8.00108e-015 4.73108e-014
rhumerus -44.4038 -20.4339 -73.6016
rradius 25.8005
rwrist 39.9172
rhand 7.04638 -30.7564
rfingers 7.12502
rthumb 32.3198 -57.8977
lclavicle 8.00108e-015 4.73108e-014
lhumerus -43.6265 12.8632 79.7318
lradius 24.5983
lwrist -22.2659
lhand -16.3164 -8.76358
lfingers 7.12502
lthumb 9.89495 20.9839
rfemur -2.32177 26.5719 25.3635
rtibia 0.729274
rfoot -11.1551 -27.2763
rtoes 2.25478
lfemur 6.68011 -45.0563 -13.8907
ltibia -4.69461
lfoot -25.6576 54.4318
ltoes 15.3596
73
root -0.542384 17.4925 8.24341 9.2962 -1.53522 -8.43449
lowerback 0.732764 0.891067 5.829
upperback -9.21339 1.71061 1.74384
thorax -10.1083 0.438658 -1.54869
lowerneck -8.68179 -5.78531 -4.31047
upperneck 20.6797 -8.871 7.03086
head 8.35062 -3.90175 2.16968
rclavicle -1.59028e-015 3.26007e-014
rhumerus -44.383 -20.4844 -73.5663
rradius 25.7744
rwrist 40.0373
rhand 7.05703 -30.7796
rfingers 7.12502
rthumb 32.33 -57.9188
lclavicle -1.59028e-015 3.26007e-014
lhumerus -43.585 13.0226 79.6349
lradius 24.4636
lwrist -22.459
lhand -16.4535 -8.87239
lfingers 7.12502
lthumb 9.76262 20.8813
rfemur -2.32168 26.5208 25.3992
rtibia 0.737451
rfoot -11.1263 -27.2342
rtoes 2.26223
lfemur 6.63079 -44.9686 -13.8117
ltibia -4.68399
lfoot -25.6261 54.3328
ltoes 15.2682
74
root -0.543173 17.4922 8.24544 9.28424 -1.50988 -8.45169
lowerback 0.713928 0.89009 5.849
upperback -9.20034 1.70874 1.74844
thorax -10.0823 0.437257 -1.55438
lowerneck -8.73532 -5.77596 -4.22253
upperneck 20.738 -8.85258 6.92562
head 8.36985 -3.89356 2.1206
rclavicle -2.93207e-015 7.95139e-015
rhumerus -44.3782 -20.5132 -73.5426
rradius 25.7555
rwrist 40.1385
rhand 7.02048 -30.8474
rfingers 7.12502
rthumb 32.2952 -57.9937
lclavicle -2.93207e-015 7.95139e-015
lhumerus -43.5755 13.1409 79.5543
lradius 24.3647
lwrist -22.625
lhand -16.5903 -8.98841
lfingers 7.12502
lthumb 9.63066 20.7714
rfemur -2.29562 26.5032 25.4292
rtibia 0.724882
rfoot -11.1243 -27.2181
rtoes 2.30493
lfemur 6.61586 -44.8929 -13.7661
ltibia -4.68751
lfoot -25.4428 54.2894
ltoes 15.0739
75
root -0.544012 17.492 8.24754 9.28058 -1.48523 -8.41966
lowerback 0.681975 0.898107 5.82301
upperback -9.19123 1.7133 1.72807
thorax -10.0519 0.441643 -1.56158
lowerneck -8.74429 -5.76442 -4.10801
upperneck 20.761 -8.84146 6.85439
head 8.36989 -3.88545 2.07905
rclavicle 1.57537e-014 -2.70347e-014
rhumerus -44.4065 -20.6464 -73.4679
rradius 25.7373
rwrist 40.244
rhand 6.96131 -30.9269
rfingers 7.12502
rthumb 32.2389 -58.0846
lclavicle 1.57537e-014 -2.70347e-014
lhumerus -43.585 13.1565 79.5262
lradius 24.3246
lwrist -22.7285
lhand -16.5894 -8.71863
lfingers 7.12502
lthumb 9.63149 21.0412
rfemur -2.27203 26.4813 25.3963
rtibia 0.69978
rfoot -11.1561 -27.2099
rtoes 2.27282
lfemur 6.64396 -44.9385 -13.8252
ltibia -4.69484
lfoot -25.3474 54.3393
ltoes 14.9516
